<?xml version="1.0" encoding="utf-8"?>
<!-- Generator: Adobe Illustrator 19.2.0, SVG Export Plug-In . SVG Version: 6.00 Build 0)  -->
<svg version="1.1" id="Layer_1" xmlns="http://www.w3.org/2000/svg" xmlns:xlink="http://www.w3.org/1999/xlink" x="0px" y="0px"
	 viewBox="0 0 99.2 99.2" style="enable-background:new 0 0 99.2 99.2;" xml:space="preserve">
<style type="text/css">
	.st0{fill:none;}
</style>
<g>
	<polygon class="st0" points="31.3,58 31.1,58.6 34.8,59 	"/>
	<polygon class="st0" points="81.1,38.5 82.1,30.6 76,21.9 72.6,36.7 78.7,34.2 	"/>
	<polygon class="st0" points="25.5,21.9 19.4,30.6 20.4,38.5 22.8,34.2 28.9,36.7 	"/>
	<polygon class="st0" points="65.9,59 69.6,58.6 69.4,58 	"/>
	<path class="st0" d="M91.7,62l-4.8-1.9l6-8.8l-8.2-6.4l2.6-14.8L75.8,11.6L66.7,38l-7.1-9.3L52,36.3h-1.7l-7.6-7.6L35.5,38
		l-9.1-26.4L15,30.2l2.6,14.8l-8.2,6.4l6,8.8L10.5,62l29.5,20.5v2.4l10.4,6.3L62,84.9l-0.4-2.4L91.7,62z M19.7,42.3l-1.6-12.1
		l8-11.3l4.5,19.7l-7.3-3L19.7,42.3z M43.7,61.6l-2.4-0.7l-11.9-1.2l0.6-2.1L26,56.4l0.3-1.2L44,60.4L43.7,61.6z M75.4,19l8,11.3
		l-1.6,12.1l-3.7-6.6l-7.3,3L75.4,19z M57,61.6l-0.3-1.2l17.7-5.2l0.3,1.2l-4.1,1.2l0.6,2.1l-11.9,1.2L57,61.6z"/>
	<path d="M98.2,61.2l-6.7-2.6l5.5-8l-9-7l2.5-14.1L75,4.5l-9.4,27.1L59.9,24l-8.8,8.8L42.3,24l-5.8,7.5L27.2,4.5l-15.5,25l2.5,14.1
		l-9,7l5.5,8L4,61.2l33,22.9v2.5l13.4,8.1l15-8.1L65,84L98.2,61.2z M50.5,91.2l-10.4-6.3v-2.4L10.5,62l4.9-1.9l-6-8.8l8.2-6.4
		L15,30.2l11.5-18.5L35.5,38l7.1-9.3l7.6,7.6H52l7.6-7.6l7.1,9.3l9.1-26.4l11.5,18.5l-2.6,14.8l8.2,6.4l-6,8.8l4.8,1.9L61.6,82.6
		l0.4,2.4L50.5,91.2z"/>
	<path d="M26.1,19l-8,11.3l1.6,12.1l3.7-6.6l7.3,3L26.1,19z M22.8,34.2l-2.4,4.3l-1-7.9l6.2-8.7l3.4,14.7L22.8,34.2z"/>
	<path d="M81.8,42.3l1.6-12.1l-8-11.3l-4.5,19.7l7.3-3L81.8,42.3z M76,21.9l6.2,8.7l-1,7.9l-2.4-4.3l-6.1,2.5L76,21.9z"/>
	<path d="M26,56.4l4.1,1.2l-0.6,2.1l11.9,1.2l2.4,0.7l0.3-1.2l-17.7-5.2L26,56.4z M31.3,58l3.6,1.1l-3.8-0.4L31.3,58z"/>
	<path d="M70.6,57.6l4.1-1.2l-0.3-1.2l-17.7,5.2l0.3,1.2l2.4-0.7l11.9-1.2L70.6,57.6z M65.9,59l3.6-1.1l0.2,0.7L65.9,59z"/>
</g>
</svg>
