<?xml version="1.0" encoding="utf-8"?>
<!-- Generator: Adobe Illustrator 19.2.0, SVG Export Plug-In . SVG Version: 6.00 Build 0)  -->
<svg version="1.1" id="Layer_1" xmlns="http://www.w3.org/2000/svg" xmlns:xlink="http://www.w3.org/1999/xlink" x="0px" y="0px"
	 viewBox="0 0 170.1 113.4" style="enable-background:new 0 0 170.1 113.4;" xml:space="preserve">
<style type="text/css">
	.st0{fill:#222222;}
</style>
<g>
	<g>
		<path class="st0" d="M90.7,35.6c-0.2,0-0.3,0-0.5,0c-6-0.3-10.6-6.7-10.1-14.1C80.5,14,85.7,8.3,91.8,8.6
			c6,0.3,10.6,6.7,10.2,14.1C101.5,29.9,96.6,35.6,90.7,35.6z M91.3,13.2c-3.3,0-6.3,3.8-6.6,8.5c-0.3,4.8,2.4,9,5.8,9.2l0.3,0
			c3.3,0,6.3-3.8,6.6-8.5c0.3-4.8-2.4-9-5.8-9.2L91.3,13.2z"/>
	</g>
	<g>
		<path class="st0" d="M22.8,38.7c-6.2,0-11.5-5.4-12.3-12.6c-0.4-3.6,0.5-7.2,2.3-10c2-2.9,4.9-4.8,8.1-5.1
			c6.7-0.7,12.6,5,13.4,12.6c0.4,3.6-0.5,7.2-2.3,10c-2,2.9-4.9,4.8-8.1,5.1C23.5,38.7,23.1,38.7,22.8,38.7z M22.1,15.5
			c-0.2,0-0.4,0-0.6,0c-1.9,0.2-3.6,1.3-4.8,3.1c-1.3,1.9-1.8,4.4-1.6,6.9c0.5,5,4.2,8.9,8.3,8.5c1.9-0.2,3.6-1.3,4.8-3.1
			c1.3-1.9,1.8-4.4,1.6-6.9C29.2,19.3,25.9,15.5,22.1,15.5z"/>
	</g>
	<g>
		<path class="st0" d="M148.2,48.3c-1,0-2-0.1-3-0.4c-3.1-0.9-5.6-3.2-7.1-6.5c-1.3-3.1-1.5-6.8-0.5-10.2
			c1.8-6.1,6.9-10.4,12.5-10.4c1,0,2,0.1,3,0.4c6.3,1.9,9.7,9.4,7.5,16.7C158.8,44.1,153.7,48.3,148.2,48.3z M150.1,25.5
			c-3.4,0-6.8,3-8,7c-0.7,2.4-0.6,5,0.3,7.1c0.9,2,2.3,3.4,4.1,3.9c0.5,0.2,1.1,0.2,1.7,0.2c3.4,0,6.8-3,8-7c1.5-4.9-0.5-9.8-4.4-11
			C151.2,25.5,150.7,25.5,150.1,25.5z"/>
	</g>
	<path class="st0" d="M158,60.2c-3.3-6.4-17.5-12.9-24.6-12.6c-5.1,0.3-17.2,6.8-19.7,11.4c-0.4,0.8-0.8,1.8-1.2,3
		c-0.7-0.1-1.5-0.2-2.3-0.3c-0.2-4.1-0.1-9.6,0.8-11.3c0.3-0.5,0.9-1.5,1.7-2.8c3.8-6.3,7.7-12.8,8.6-16.5
		c1.5-6.1-1.9-20.5-7.1-25.8c-2.4-2.4-4.6-2.5-6.1-2.2c-5.5,1.3-4,8.9-2.7,15.7c0.6,3.2,1.3,6.9,1,8.5c-0.5,2.3-4.4,8.2-6.6,9.8
		c-2.8,2.1-10.8,2.6-15,1.5c-3.2-0.9-8.2-8.2-8.9-12.2c-0.3-1.9,0.8-6,1.7-9.5c1.9-6.9,4-14.8-1.6-16.7c-1.3-0.5-3.4-0.6-5.8,1.5
		c-5.8,5-10.5,22-9.2,28.9c0.7,3.4,3.1,7.5,5.5,11.4c1.7,2.8,3.4,5.7,4.1,7.8c0.6,1.7,0.9,7.6,1,11.4c-9.6,0.9-18.3,2.6-25.7,4.9
		c0-0.3,0-0.6-0.1-0.9L44,60.1c2.7,1.2,6,1.9,8.9,0.4c4.7-2.4,11.8-13.3,10.5-19c-0.6-2.5-2.6-4-5.5-4c0,0,0,0,0,0
		c-3.6,0-5.7,3.9-7.5,7.3c-0.6,1.1-1.4,2.6-1.9,3.2c-1.3-0.5-3.5-2.5-5-3.8c-2.2-1.9-4.3-3.8-6.3-4.6c-5.7-2.3-15.9,0-20.6,3.4
		c-5.7,4.2-8.9,15.3-7.4,25.4c0.8,5.3,7.6,9.2,14.2,11c-1.7,2.3-2.6,4.8-2.6,7.4c0,14.9,29.8,26.5,67.8,26.5
		c38,0,67.8-11.6,67.8-26.5c0-1.2-0.2-2.3-0.6-3.4C159.4,77.4,160.7,65.3,158,60.2z M36.5,69.7c-2.5-1.4-6.2-2.5-10-3.7
		c-1.6-0.5-3.5-1.1-4.3-1.4c-0.2-1.1,0.1-4,0.7-6.8c0-0.1,0-0.2,0.1-0.4c0.3-1.2-0.5-2.5-1.8-2.8c-1.3-0.3-2.5,0.5-2.8,1.8
		c-2.1,9.6,0,11.2,0.7,11.7c0.9,0.7,2.6,1.2,6,2.2c1.5,0.5,4,1.2,6.2,2c1,0.4,1.9,0.7,2.6,1.1c0.5,0.3,1,0.5,1.2,0.7
		c-0.7,1.5-3.5,1.7-4.8,1.6c-0.1,0-0.1,0-0.2,0c-1,0-2.1-0.1-3.2-0.3c-6.3-1.1-12.8-4.7-13.2-7.8c-1.2-8.1,1.3-17.9,5.5-21
		c3.5-2.6,12.1-4.5,16.1-2.9c1.3,0.5,3.3,2.3,5,3.8c2.8,2.4,5.4,4.7,7.9,5.1c2.9,0.4,4.5-2.6,6.2-5.8c0.7-1.3,2.5-4.8,3.4-4.8l0,0
		c0.9,0,1,0.2,1,0.4c0.7,3.1-4.9,12.2-8.1,13.8c-3,1.5-8.2-2.2-9.8-3.7c-0.8-0.7-2-0.8-2.8-0.2c-0.9,0.6-1.3,1.7-0.9,2.7l3.4,9.7
		l0.7,1.9c0.1,0.3,0.2,0.5,0.4,0.7C40,68.2,38.2,68.9,36.5,69.7z M69,93.6h-7v-6.8h7V93.6z M78.2,82.1h-7v-6.8h7V82.1z M76.3,60.8
		c-0.1-2.7-0.4-9.9-1.3-12.5c-0.9-2.6-2.6-5.6-4.5-8.7c-2.1-3.6-4.4-7.3-4.9-9.9c-1.1-5.3,3.3-20.6,7.7-24.5
		c0.2-0.2,0.9-0.7,1.2-0.6c1.5,0.5-0.5,7.9-1.4,11.1c-1.2,4.4-2.3,8.6-1.8,11.5c0.9,5.2,6.7,14.3,12.2,15.9
		c4.8,1.3,14.7,1.1,19.1-2.2c2.8-2.1,7.5-8.9,8.3-12.5c0.5-2.6-0.2-6.4-1-10.4c-0.6-3-1.8-9.3-0.8-10.3c0.6-0.1,1.3,0.4,1.8,0.9
		c3.9,4,7.1,16.7,5.9,21.4c-0.8,3.3-5.7,11.3-8,15.2c-0.9,1.4-1.5,2.5-1.8,3.1c-1.5,2.9-1.5,9.4-1.4,12.9c-5.4-0.5-11.1-0.8-17-0.8
		C84.4,60.3,80.3,60.5,76.3,60.8z M103.1,88h-7v-6.8h7V88z M153,78.5c-0.3,0.9-0.7,1.7-1,2.3c-0.3,0.5-0.6,0.9-0.9,1.3
		c-0.2,0.2-0.4,0.4-0.6,0.7c-3.4,3.4-11.4,8.3-15.7,7.6c-1.1-0.2-1.9-0.7-2.4-1.8c0.7-1.1,4.7-3,7-4.1c3.4-1.6,6.7-3.2,8.4-5.1
		c0.2-0.2,0.4-0.5,0.6-0.8c0.2-0.4,0.4-0.8,0.6-1.3c0.3-0.7,0.6-1.4,0.8-2.2c0.9-3,1.4-6.6,1.4-8.4c0-1.3-1-2.3-2.3-2.3
		c-1.2,0-2.2,0.9-2.3,2.1c0,0.1,0,0.2,0,0.2c0,1.4-0.3,3.6-0.8,5.6c-4.2-2.5-9.4-4.8-15.5-6.6l0.5-0.8l2.4-3.6
		c0.5-0.8,0.5-1.9-0.1-2.7c-0.6-0.8-1.6-1.1-2.5-0.8c-2.2,0.7-6.3,2.3-8.9,5.4c-0.1,0.1-0.1,0.2-0.2,0.3c-0.4,0.6-0.7,1.4-0.9,2.2
		c-0.2,0.7-0.2,1.5-0.3,2.2c-0.1,1-0.1,2.1-0.1,3.2c0,5.4-0.4,6.9-1.9,7c-0.4,0-0.8,0-1.3-0.8c-1.3-2.1-1.4-6.3-0.9-10.1
		c0.1-0.8,0.2-1.5,0.4-2.2c0.2-0.8,0.4-1.6,0.6-2.2c0.2-0.6,0.4-1.1,0.6-1.5c1.7-3,12-8.8,16-9c5.4-0.3,17.8,5.4,20.2,10.1
		C155.5,65.4,154.9,73.4,153,78.5z"/>
</g>
</svg>
